# xmcd
#
# Track frame offsets: 
#        150
#        15301
#        31803
#        44414
#        55916
#        68918
#        80220
#        93239
#        102381
#        114930
#
# Disc length: 1666 seconds
#
# Revision: 2
# Processed by: cddbd v1.5.2PL0 Copyright (c) Steve Scherf et al.
# Submitted via: ExactAudioCopyFreeDBPlugin 1.0
#
DISCID=7806800a
DTITLE=Glen Campbell - 1970 - Oh Happy Day
DYEAR=1970
DGENRE=Gospel
TTITLE0=Someone Above
TTITLE1=Oh Happy Day
TTITLE2=I Believe
TTITLE3=He's Got the Whole World in His Hands
TTITLE4=You'll Never Walk Alone
TTITLE5=One Pair Of Hands
TTITLE6=He
TTITLE7=People Get Ready
TTITLE8=Angels In The Sky
TTITLE9=Daddy Sang Bass
EXTD=
EXTT0=
EXTT1=
EXTT2=
EXTT3=
EXTT4=
EXTT5=
EXTT6=
EXTT7=
EXTT8=
EXTT9=
PLAYORDER=
